<?xml version="1.0" encoding="UTF-8" standalone="no"?>
<!-- Generator: Adobe Illustrator 16.0.0, SVG Export Plug-In . SVG Version: 6.00 Build 0)  -->

<svg
   xmlns:dc="http://purl.org/dc/elements/1.1/"
   xmlns:cc="http://creativecommons.org/ns#"
   xmlns:rdf="http://www.w3.org/1999/02/22-rdf-syntax-ns#"
   xmlns:svg="http://www.w3.org/2000/svg"
   xmlns="http://www.w3.org/2000/svg"
   xmlns:sodipodi="http://sodipodi.sourceforge.net/DTD/sodipodi-0.dtd"
   xmlns:inkscape="http://www.inkscape.org/namespaces/inkscape"
   version="1.1"
   id="Layer_1"
   x="0px"
   y="0px"
   width="15.9725"
   height="15.9725"
   viewBox="0 0 15.9725 15.9725"
   enable-background="new 0 0 640 480"
   xml:space="preserve"
   sodipodi:docname="Untitled-1.svg"
   inkscape:version="0.92.0 r15299"><metadata
     id="metadata30"><rdf:RDF><cc:Work
         rdf:about=""><dc:format>image/svg+xml</dc:format><dc:type
           rdf:resource="http://purl.org/dc/dcmitype/StillImage" /></cc:Work></rdf:RDF></metadata><defs
     id="defs28" /><sodipodi:namedview
     pagecolor="#ffffff"
     bordercolor="#666666"
     borderopacity="1"
     objecttolerance="10"
     gridtolerance="10"
     guidetolerance="10"
     inkscape:pageopacity="0"
     inkscape:pageshadow="2"
     inkscape:window-width="1920"
     inkscape:window-height="1027"
     id="namedview26"
     showgrid="false"
     inkscape:zoom="31.466667"
     inkscape:cx="5.3422418"
     inkscape:cy="11.87826"
     inkscape:window-x="-8"
     inkscape:window-y="-8"
     inkscape:window-maximized="1"
     inkscape:current-layer="Layer_1" /><g
     id="g23"
     transform="translate(-186.256,-159.929)"><path
       d="m 201.789,175.462 c -0.586,0.586 -1.535,0.586 -2.121,0 l -2.647,-2.648 c -1.089,0.699 -2.376,1.115 -3.765,1.115 -3.866,0 -7,-3.135 -7,-7 0,-3.866 3.134,-7 7,-7 3.866,0 7,3.134 7,7 0,1.389 -0.416,2.676 -1.114,3.764 l 2.647,2.648 c 0.586,0.586 0.586,1.535 0,2.121 z m -8.533,-13.533 c -2.761,0 -5,2.238 -5,5 0,2.762 2.239,5 5,5 2.762,0 5,-2.238 5,-5 0,-2.762 -2.238,-5 -5,-5 z"
       id="path21"
       inkscape:connector-curvature="0"
       style="clip-rule:evenodd;fill-rule:evenodd" /></g></svg>